<svg width="20" height="19" viewBox="0 0 20 19" fill="none" xmlns="http://www.w3.org/2000/svg">
<path d="M5.75 17.75H13.75M9.75 13.75V17.75M9.75 13.75C11.0761 13.75 12.3479 13.2232 13.2855 12.2855C14.2232 11.3479 14.75 10.0761 14.75 8.75V0.75H4.75V8.75C4.75 10.0761 5.27678 11.3479 6.21447 12.2855C7.15215 13.2232 8.42392 13.75 9.75 13.75ZM0.75 5.75C0.75 6.28043 0.960714 6.78914 1.33579 7.16421C1.71086 7.53929 2.21957 7.75 2.75 7.75C3.28043 7.75 3.78914 7.53929 4.16421 7.16421C4.53929 6.78914 4.75 6.28043 4.75 5.75C4.75 5.21957 4.53929 4.71086 4.16421 4.33579C3.78914 3.96071 3.28043 3.75 2.75 3.75C2.21957 3.75 1.71086 3.96071 1.33579 4.33579C0.960714 4.71086 0.75 5.21957 0.75 5.75ZM14.75 5.75C14.75 6.28043 14.9607 6.78914 15.3358 7.16421C15.7109 7.53929 16.2196 7.75 16.75 7.75C17.2804 7.75 17.7891 7.53929 18.1642 7.16421C18.5393 6.78914 18.75 6.28043 18.75 5.75C18.75 5.21957 18.5393 4.71086 18.1642 4.33579C17.7891 3.96071 17.2804 3.75 16.75 3.75C16.2196 3.75 15.7109 3.96071 15.3358 4.33579C14.9607 4.71086 14.75 5.21957 14.75 5.75Z" stroke="#888888" stroke-width="1.5" stroke-linecap="round" stroke-linejoin="round"/>
</svg>
